<svg height="512" viewBox="0 0 512 512" width="512" xmlns="http://www.w3.org/2000/svg" xmlns:xlink="http://www.w3.org/1999/xlink"><linearGradient id="a" gradientUnits="userSpaceOnUse" x1="101.27" x2="600.308" y1="562.73" y2="63.692" data-name="New Gradient Swatch 1"><stop offset="0" stop-color="#003f8a"/><stop offset=".518" stop-color="#00d7df"/><stop offset="1" stop-color="#006df0"/></linearGradient><linearGradient id="b" x1="21.27" x2="520.308" xlink:href="#a" y1="482.73" y2="-16.308"/><linearGradient id="c" x1="-5.583" x2="493.455" xlink:href="#a" y1="455.877" y2="-43.161"/><g><path d="m408 232a24 24 0 1 0 24-24 24.027 24.027 0 0 0 -24 24zm24-8a8 8 0 1 1 -8 8 8.009 8.009 0 0 1 8-8z" fill="url(#a)"/><path d="m496 184h-8v-108a28.031 28.031 0 0 0 -28-28h-376a28.031 28.031 0 0 0 -28 28v203.38l-42.97 17.19a8.014 8.014 0 0 0 -5.01 8.04l8 104a8.047 8.047 0 0 0 3.54 6.05l72 48a8.026 8.026 0 0 0 8.88 0l69.98-46.66h289.58a28.031 28.031 0 0 0 28-28v-108h8a8 8 0 0 0 8-8v-80a8 8 0 0 0 -8-8zm-424-108a12.01 12.01 0 0 1 12-12h376a12.01 12.01 0 0 1 12 12v4h-400zm88.32 327.5-64.32 42.89-64.32-42.89-7.25-94.25 71.57-28.63 71.57 28.63zm311.68-15.5a12.01 12.01 0 0 1 -12 12h-283.36l1.23-16h294.13zm0-20h-292.9l4.88-63.39a8.014 8.014 0 0 0 -5.01-8.04l-80-32a8.023 8.023 0 0 0 -5.94 0l-21.03 8.41v-176.98h400v88h-48a48 48 0 0 0 0 96h48zm16-104h-64a32 32 0 0 1 0-64h64z" fill="url(#b)"/><path d="m93.029 290.421-54.609 21.844a8 8 0 0 0 -5.007 8.021l5.564 74.766a8 8 0 0 0 3.54 6.063l49.045 32.7a8 8 0 0 0 8.875 0l49.046-32.7a8 8 0 0 0 3.54-6.063l5.564-74.766a8 8 0 0 0 -5.007-8.021l-54.609-21.844a8 8 0 0 0 -5.942 0zm49.171 34.522-4.839 65.026-41.361 27.572-41.357-27.572-4.843-65.026 46.2-18.478z" fill="url(#c)"/></g></svg>